<svg xmlns="http://www.w3.org/2000/svg" xmlns:xlink="http://www.w3.org/1999/xlink" width="1054.42" height="868.43" viewBox="0 0 1054.42 868.43">
  <defs>
    <linearGradient id="linear-gradient" x1="-9727.9" y1="1003.39" x2="-9679.38" y2="1003.39" gradientTransform="matrix(-1, 0, 0, 1, -8591.75, 0)" gradientUnits="userSpaceOnUse">
      <stop offset="0" stop-color="#fff"/>
      <stop offset="1" stop-color="#b7b7b7"/>
    </linearGradient>
    <linearGradient id="linear-gradient-2" x1="1087.95" y1="982.36" x2="1066.98" y2="1013.36" gradientUnits="userSpaceOnUse">
      <stop offset="0" stop-color="#fff"/>
      <stop offset="1" stop-color="#949494"/>
    </linearGradient>
    <linearGradient id="linear-gradient-3" x1="1071.78" y1="970.14" x2="935.47" y2="963.75" xlink:href="#linear-gradient-2"/>
    <linearGradient id="linear-gradient-4" x1="969.03" y1="923.93" x2="936.21" y2="993.22" xlink:href="#linear-gradient-2"/>
    <linearGradient id="linear-gradient-5" x1="949.83" y1="850.48" x2="851.36" y2="1020.06" gradientUnits="userSpaceOnUse">
      <stop offset="0" stop-color="#fbb53d"/>
      <stop offset="1" stop-color="#ff3803"/>
    </linearGradient>
    <linearGradient id="linear-gradient-6" x1="908.79" y1="881.63" x2="799.38" y2="1017.02" xlink:href="#linear-gradient-2"/>
    <linearGradient id="linear-gradient-7" x1="838.74" y1="783.57" x2="699.24" y2="1161.03" xlink:href="#linear-gradient-5"/>
    <linearGradient id="linear-gradient-8" x1="-17192.11" y1="1003.39" x2="-17143.59" y2="1003.39" gradientTransform="translate(17307.54)" xlink:href="#linear-gradient"/>
    <linearGradient id="linear-gradient-9" x1="8552.16" y1="982.36" x2="8531.19" y2="1013.36" gradientTransform="matrix(-1, 0, 0, 1, 8715.79, 0)" xlink:href="#linear-gradient-2"/>
    <linearGradient id="linear-gradient-10" x1="8535.99" y1="970.14" x2="8399.68" y2="963.75" gradientTransform="matrix(-1, 0, 0, 1, 8715.79, 0)" xlink:href="#linear-gradient-2"/>
    <linearGradient id="linear-gradient-11" x1="8433.24" y1="923.93" x2="8400.42" y2="993.22" gradientTransform="matrix(-1, 0, 0, 1, 8715.79, 0)" xlink:href="#linear-gradient-2"/>
    <linearGradient id="linear-gradient-12" x1="8414.04" y1="850.48" x2="8315.57" y2="1020.06" gradientTransform="matrix(-1, 0, 0, 1, 8715.79, 0)" xlink:href="#linear-gradient-5"/>
    <linearGradient id="linear-gradient-13" x1="8373" y1="881.63" x2="8263.59" y2="1017.02" gradientTransform="matrix(-1, 0, 0, 1, 8715.79, 0)" xlink:href="#linear-gradient-2"/>
    <linearGradient id="linear-gradient-14" x1="8302.95" y1="783.56" x2="8163.45" y2="1161.03" gradientTransform="matrix(-1, 0, 0, 1, 8715.79, 0)" xlink:href="#linear-gradient-5"/>
    <linearGradient id="linear-gradient-15" x1="386.77" y1="483.79" x2="890.37" y2="483.79" gradientUnits="userSpaceOnUse">
      <stop offset="0" stop-color="#fff"/>
      <stop offset="1" stop-color="#5e5e5e"/>
    </linearGradient>
    <linearGradient id="linear-gradient-16" x1="575.4" y1="82.5" x2="1048.09" y2="556.98" gradientTransform="translate(167.63 -252.62) rotate(20.02)" gradientUnits="userSpaceOnUse">
      <stop offset="0" stop-color="#fff"/>
      <stop offset="1" stop-color="#fff"/>
    </linearGradient>
    <linearGradient id="linear-gradient-17" x1="604.81" y1="963.5" x2="704.22" y2="963.5" xlink:href="#linear-gradient-15"/>
    <linearGradient id="linear-gradient-18" x1="782.65" y1="863.84" x2="968.79" y2="1050.69" gradientTransform="matrix(0.59, 0.55, -0.57, 0.6, 705.93, -100.09)" xlink:href="#linear-gradient-16"/>
  </defs>
  <g style="isolation: isolate">
    <g id="Layer_1" data-name="Layer 1">
      <g>
        <g>
          <g>
            <path d="M1110,984.39c16,4.76,13.54,19.83,13.54,19.83s12.3-7.9,24,.17c8.93,6.15,7.12,18.72-7.44,19.79H1038.45C1052,1001.68,1080,975.45,1110,984.39Z" transform="translate(-98.58 -171.57)" style="fill: #ffd97b"/>
            <path d="M1110,984.39c16,4.76,13.54,19.83,13.54,19.83s12.3-7.9,24,.17c8.93,6.15,7.12,18.72-7.44,19.79H1038.45C1052,1001.68,1080,975.45,1110,984.39Z" transform="translate(-98.58 -171.57)" style="mix-blend-mode: color-burn;fill: url(#linear-gradient)"/>
          </g>
          <path d="M1096.84,982.61c-24.83.54-46.89,22.41-58.39,41.57h32.23C1090.29,1017.67,1100.28,999.57,1096.84,982.61Z" transform="translate(-98.58 -171.57)" style="mix-blend-mode: color-burn;fill: url(#linear-gradient-2)"/>
          <g>
            <path d="M979.73,905.13c49.46,13.65,20.71,78,20.71,78s28.43-47.11,69-26.62c26.79,13.56,26.32,52.26-6.6,67.68H899.23C891.67,950.37,929,891.12,979.73,905.13Z" transform="translate(-98.58 -171.57)" style="fill: #f97c15"/>
            <path d="M979.73,905.13c49.46,13.65,20.71,78,20.71,78s28.43-47.11,69-26.62c26.79,13.56,26.32,52.26-6.6,67.68H899.23C891.67,950.37,929,891.12,979.73,905.13Z" transform="translate(-98.58 -171.57)" style="mix-blend-mode: color-burn;fill: url(#linear-gradient-3)"/>
          </g>
          <path d="M1008.27,937.54c-1.81-14-9.19-27.07-28.54-32.41-50.77-14-88.06,45.24-80.5,119.05H960A222.45,222.45,0,0,0,1008.27,937.54Z" transform="translate(-98.58 -171.57)" style="mix-blend-mode: color-burn;fill: url(#linear-gradient-4)"/>
          <g>
            <path d="M955.32,1024.18a223.75,223.75,0,0,0,22-191.56c-16.7,8-44.46,21.34-74,36.24-29.73,15.23-61.3,32-88.91,54.33-28.78,23.29-46.6,55.38-62.92,87.95-2.12,4.35-4.21,8.71-6.26,13Z" transform="translate(-98.58 -171.57)" style="fill: url(#linear-gradient-5)"/>
            <path d="M958.6,930.73a2.27,2.27,0,0,0-2.75-1.83q-17.07,3.79-34,6.23,13.44-18.21,25.2-37.71a2.33,2.33,0,0,0-4-2.41q-11.64,19.29-25,37.35-2.71-16.74-6.56-32.86a2.47,2.47,0,0,0-2.75-1.83,2.05,2.05,0,0,0-1.7,2.54q4.3,18.25,7.14,37.32a484.09,484.09,0,0,1-36.36,42.58,441.64,441.64,0,0,0-6.53-63,2.56,2.56,0,0,0-2.58-2,1.89,1.89,0,0,0-1.81,2.26,438.94,438.94,0,0,1,6.43,67.35,481,481,0,0,1-41.52,37.52A435.79,435.79,0,0,0,833,949a2.59,2.59,0,0,0-2.34-2.33,1.82,1.82,0,0,0-2,2,433.75,433.75,0,0,1-1.52,75.52h9.83A489.5,489.5,0,0,0,876.76,988,479.25,479.25,0,0,0,948,982.59a2.69,2.69,0,0,0,2.24-2.8,2.21,2.21,0,0,0-2.58-2.06,476.24,476.24,0,0,1-66.4,5.61,490.26,490.26,0,0,0,36.71-43q19.18-2.52,38.68-6.75A2.52,2.52,0,0,0,958.6,930.73Zm-170.86,71.9a1.93,1.93,0,0,0-2.39,1.72q-1.08,9.87-2.65,19.83h4.54q1.44-9.48,2.44-18.88A2.52,2.52,0,0,0,787.74,1002.63Z" transform="translate(-98.58 -171.57)" style="fill: #9e9e9e;mix-blend-mode: color-burn"/>
          </g>
          <path d="M903.3,868.86c-29.73,15.23-61.3,32-88.91,54.33-28.78,23.29-46.6,55.38-62.92,87.95-2.12,4.35-4.21,8.71-6.26,13H857.62a193.26,193.26,0,0,0,30-39c24.69-41.85,34-86.46,34.45-125.71C916,862.52,909.67,865.65,903.3,868.86Z" transform="translate(-98.58 -171.57)" style="mix-blend-mode: color-burn;fill: url(#linear-gradient-6)"/>
          <g>
            <path d="M850.28,1024.18a194.26,194.26,0,0,0,28-47.67c23.09-55.85,22-112.61,11.4-156.5a260.8,260.8,0,0,0-43.22-93.39c-15.83,14.66-42.13,39.13-69.93,66-27.85,27.24-57.2,56.82-80.23,91.24-24,35.88-32.76,77.78-39.67,119.69-1.06,6.92-2.07,13.85-3,20.68Z" transform="translate(-98.58 -171.57)" style="fill: url(#linear-gradient-7)"/>
            <path d="M867.14,899.87a2.58,2.58,0,0,0-3.59-1.39,557.53,557.53,0,0,1-72,29.19,569.49,569.49,0,0,0,26-60.57q20.5-9.44,40.74-20.89a2.93,2.93,0,0,0,1.14-3.86,2.64,2.64,0,0,0-3.69-1.08q-17.7,10.13-35.65,18.67,8.67-24.93,15-50.7a2.72,2.72,0,0,0-5.29-1.3q-6.27,25.5-14.88,50.22-8.81-17.71-18.67-34.34a2.88,2.88,0,0,0-3.69-1.08,2.39,2.39,0,0,0-1,3.41q11.1,18.84,20.85,39.1a562.47,562.47,0,0,1-25.77,60,516.65,516.65,0,0,0-29-67.84,3,3,0,0,0-3.59-1.39,2.19,2.19,0,0,0-1.23,3.14,513.69,513.69,0,0,1,30.44,72.79A562.21,562.21,0,0,1,750,988.06a507.72,507.72,0,0,0-24.17-81.94,3,3,0,0,0-3.4-1.79,2.12,2.12,0,0,0-1.55,2.93,506.19,506.19,0,0,1,24.88,87q-10.62,15.3-22.26,29.91h7q10.29-13.13,19.78-26.81a567.14,567.14,0,0,0,93.12-24.68,3.19,3.19,0,0,0,2-3.74,2.55,2.55,0,0,0-3.4-1.79,564.91,564.91,0,0,1-87.42,23.94,570.22,570.22,0,0,0,33.6-56.68,557.85,557.85,0,0,0,77.5-30.66A3.14,3.14,0,0,0,867.14,899.87ZM694,981.48a2.27,2.27,0,0,0-2.07,2.75q3.81,19.57,6.08,40h5.34q-2.36-20.58-6.27-40.39A3,3,0,0,0,694,981.48Z" transform="translate(-98.58 -171.57)" style="fill: #9e9e9e;mix-blend-mode: color-burn"/>
          </g>
        </g>
        <g>
          <g>
            <path d="M141.56,984.39c-16,4.76-13.54,19.83-13.54,19.83s-12.3-7.9-24,.17c-8.93,6.15-7.12,18.72,7.44,19.79H213.13C199.63,1001.68,171.58,975.45,141.56,984.39Z" transform="translate(-98.58 -171.57)" style="fill: #ffd97b"/>
            <path d="M141.56,984.39c-16,4.76-13.54,19.83-13.54,19.83s-12.3-7.9-24,.17c-8.93,6.15-7.12,18.72,7.44,19.79H213.13C199.63,1001.68,171.58,975.45,141.56,984.39Z" transform="translate(-98.58 -171.57)" style="mix-blend-mode: color-burn;fill: url(#linear-gradient-8)"/>
          </g>
          <path d="M154.74,982.61c24.83.54,46.89,22.41,58.39,41.57H180.9C161.29,1017.67,151.3,999.57,154.74,982.61Z" transform="translate(-98.58 -171.57)" style="mix-blend-mode: color-burn;fill: url(#linear-gradient-9)"/>
          <g>
            <path d="M271.85,905.13c-49.46,13.65-20.71,78-20.71,78S222.71,936,182.19,956.5c-26.79,13.56-26.32,52.26,6.6,67.68H352.35C359.91,950.37,322.62,891.12,271.85,905.13Z" transform="translate(-98.58 -171.57)" style="fill: #f97c15"/>
            <path d="M271.85,905.13c-49.46,13.65-20.71,78-20.71,78S222.71,936,182.19,956.5c-26.79,13.56-26.32,52.26,6.6,67.68H352.35C359.91,950.37,322.62,891.12,271.85,905.13Z" transform="translate(-98.58 -171.57)" style="mix-blend-mode: color-burn;fill: url(#linear-gradient-10)"/>
          </g>
          <path d="M243.31,937.54c1.81-14,9.19-27.07,28.54-32.41,50.77-14,88.06,45.24,80.5,119.05H291.56A222.45,222.45,0,0,1,243.31,937.54Z" transform="translate(-98.58 -171.57)" style="mix-blend-mode: color-burn;fill: url(#linear-gradient-11)"/>
          <g>
            <path d="M296.26,1024.18a223.75,223.75,0,0,1-22-191.56c16.7,8,44.45,21.34,74,36.24,29.74,15.23,61.3,32,88.91,54.33,28.78,23.29,46.6,55.38,62.92,87.95,2.12,4.35,4.21,8.71,6.26,13Z" transform="translate(-98.58 -171.57)" style="fill: url(#linear-gradient-12)"/>
            <path d="M294.9,933.6q19.47,4.24,38.68,6.75a490.26,490.26,0,0,0,36.71,43,476.24,476.24,0,0,1-66.4-5.61,2.21,2.21,0,0,0-2.58,2.06,2.69,2.69,0,0,0,2.24,2.8A479.25,479.25,0,0,0,374.82,988a489.5,489.5,0,0,0,39.85,36.18h9.83A433.75,433.75,0,0,1,423,948.66a1.82,1.82,0,0,0-2-2,2.57,2.57,0,0,0-2.33,2.33,434.72,434.72,0,0,0,1,73.25,482.51,482.51,0,0,1-41.52-37.52,440.2,440.2,0,0,1,6.43-67.35,1.89,1.89,0,0,0-1.81-2.26,2.56,2.56,0,0,0-2.58,2,441.64,441.64,0,0,0-6.53,63,484.09,484.09,0,0,1-36.36-42.58q2.82-19,7.14-37.32a2.05,2.05,0,0,0-1.7-2.54A2.47,2.47,0,0,0,340,899.5q-3.84,16.11-6.56,32.86-13.31-18-24.95-37.35a2.34,2.34,0,0,0-4,2.41q11.75,19.47,25.2,37.71-16.87-2.45-33.95-6.23a2.27,2.27,0,0,0-2.75,1.83A2.52,2.52,0,0,0,294.9,933.6Zm167,71.7q1,9.39,2.44,18.88h4.54q-1.56-10-2.65-19.83a1.93,1.93,0,0,0-2.39-1.72A2.52,2.52,0,0,0,461.9,1005.3Z" transform="translate(-98.58 -171.57)" style="fill: #9e9e9e;mix-blend-mode: color-burn"/>
          </g>
          <path d="M348.28,868.86c29.74,15.23,61.3,32,88.91,54.33,28.78,23.29,46.6,55.38,62.92,87.95,2.12,4.35,4.21,8.71,6.26,13H394a193.26,193.26,0,0,1-30-39c-24.69-41.85-34-86.46-34.45-125.71C335.63,862.52,341.91,865.65,348.28,868.86Z" transform="translate(-98.58 -171.57)" style="mix-blend-mode: color-burn;fill: url(#linear-gradient-13)"/>
          <g>
            <path d="M401.3,1024.18a194.26,194.26,0,0,1-27.95-47.67c-23.09-55.85-22-112.61-11.4-156.5a260.8,260.8,0,0,1,43.22-93.39c15.84,14.66,42.13,39.13,69.93,66,27.85,27.24,57.2,56.82,80.23,91.24,24,35.88,32.76,77.78,39.67,119.69,1.06,6.92,2.07,13.85,3,20.68Z" transform="translate(-98.58 -171.57)" style="fill: url(#linear-gradient-14)"/>
            <path d="M386,903.76a557.48,557.48,0,0,0,77.51,30.66,568.21,568.21,0,0,0,33.59,56.68,564.91,564.91,0,0,1-87.42-23.94,2.55,2.55,0,0,0-3.4,1.79,3.19,3.19,0,0,0,2,3.74,567.14,567.14,0,0,0,93.12,24.68q9.48,13.68,19.78,26.81h7q-11.62-14.6-22.26-29.91a506.19,506.19,0,0,1,24.88-87,2.12,2.12,0,0,0-1.55-2.93,3,3,0,0,0-3.4,1.79,507.72,507.72,0,0,0-24.17,81.94,562.21,562.21,0,0,1-33.27-56.13,513.69,513.69,0,0,1,30.44-72.79,2.19,2.19,0,0,0-1.23-3.14,3,3,0,0,0-3.59,1.39,516.65,516.65,0,0,0-29,67.84,562.47,562.47,0,0,1-25.77-60Q448.87,845,460,826.15a2.38,2.38,0,0,0-1-3.41,2.88,2.88,0,0,0-3.69,1.08q-9.86,16.62-18.67,34.34-8.6-24.7-14.88-50.22a2.72,2.72,0,0,0-5.29,1.3q6.35,25.74,15,50.7-17.94-8.55-35.65-18.67a2.64,2.64,0,0,0-3.69,1.08,2.93,2.93,0,0,0,1.14,3.86Q413.49,857.67,434,867.1a569.49,569.49,0,0,0,26,60.57,557.53,557.53,0,0,1-72-29.19,2.57,2.57,0,0,0-3.58,1.39A3.12,3.12,0,0,0,386,903.76Zm168.5,80q-3.91,19.79-6.27,40.39h5.34q2.26-20.36,6.08-40a2.27,2.27,0,0,0-2.07-2.75A3,3,0,0,0,554.47,983.79Z" transform="translate(-98.58 -171.57)" style="fill: #9e9e9e;mix-blend-mode: color-burn"/>
          </g>
        </g>
      </g>
      <path d="M857.11,287.33C817.73,223,740.39,171.57,627.52,171.57c-1.46,0-2.92,0-4.38,0-.25,0-.51,0-.77,0-1.56,0-3.12.06-4.67.11-1.24,0-2.48.08-3.72.15-.59,0-1.18,0-1.77.08h-.31l-3.58.2-1.05.08c-1.34.08-2.68.18-4,.29-1.54.12-3.09.26-4.62.41l-.21,0c-1.4.13-2.79.28-4.18.44q-2.76.3-5.49.67c-1.33.17-2.67.35-4,.55l-.48.07c-1.27.19-2.54.38-3.79.59q-3.06.5-6.07,1.05l-2.32.44-1.72.33-.13,0c-1.27.25-2.53.52-3.78.79s-2.31.5-3.45.76l-1.28.3-3.1.74c-.63.15-1.26.31-1.88.48-.2,0-.41.09-.61.15-.95.24-1.88.48-2.82.74-1.26.33-2.52.68-3.77,1l-1,.29c-1.14.32-2.27.66-3.4,1l-.39.12c-1.39.42-2.76.85-4.13,1.29l-.15,0c-1.38.44-2.75.89-4.11,1.36-1.11.37-2.21.76-3.3,1.15-.42.14-.85.29-1.27.45-1.29.46-2.57.94-3.85,1.42s-2.58,1-3.86,1.5l-.09,0c-1.27.51-2.53,1-3.79,1.55l-.27.11L516.38,194l-.5.22c-1.16.51-2.32,1-3.47,1.55l-.3.13c-1.26.57-2.52,1.16-3.77,1.75l-3.76,1.82-.1.05c-1.26.63-2.52,1.26-3.77,1.91s-2.51,1.31-3.75,2-2.48,1.34-3.71,2-2.28,1.28-3.41,1.93l-.62.36L486,209.58l-.07,0c-1.19.71-2.38,1.44-3.55,2.17-.88.54-1.75,1.09-2.62,1.65l-1.52,1c-1.14.73-2.27,1.48-3.39,2.23s-1.93,1.3-2.88,2-1.86,1.29-2.78,1.95c-.45.31-.89.62-1.34,1q-8.94,6.4-17.24,13.48l-2,1.69c-1,.86-2,1.74-3,2.62-.83.73-1.65,1.47-2.46,2.23s-1.8,1.65-2.68,2.49c-.44.4-.87.81-1.3,1.23q-1.14,1.06-2.25,2.16c-.84.82-1.68,1.64-2.51,2.48q-6.09,6.09-11.75,12.51c-.82.93-1.64,1.87-2.44,2.81s-1.41,1.65-2.1,2.48-1.46,1.74-2.17,2.62c-.55.66-1.09,1.33-1.63,2l-1.82,2.28-2.46,3.17c-1.24,1.64-2.48,3.29-3.69,5-.47.64-.94,1.29-1.4,1.94-.13.18-.27.36-.39.55-.56.78-1.12,1.57-1.66,2.35-.69,1-1.37,2-2,3-1.08,1.58-2.13,3.17-3.17,4.77-.5.77-1,1.54-1.49,2.32l-.6.95a60.89,60.89,0,0,0,16.25,80.9h0a61.06,61.06,0,0,0,12.22,6.87l12.36,5.2a61,61,0,0,0,75.23-23.74C534.31,332.1,571,301.74,628,301.74c123.92,0,148.42,115.76,104.71,177.72-41.31,59.08-112.4,98.47-149.38,165.24-15.61,28.14-21.27,58.59-23.08,86.58A60.95,60.95,0,0,0,621.08,796h19.08a60.86,60.86,0,0,0,60.68-55.24c0-.2,0-.4,0-.59q.25-2.79.54-5.37c.07-.57.13-1.14.2-1.69s.13-1.11.2-1.65c.1-.73.19-1.45.3-2.15q.21-1.56.45-3c0-.34.11-.67.16-1,.11-.64.22-1.27.33-1.88.06-.34.12-.68.19-1,.16-.9.34-1.77.52-2.62a.15.15,0,0,1,0-.07c.18-.86.37-1.69.56-2.51.13-.56.26-1.11.4-1.65s.27-1.08.42-1.61q.09-.39.21-.78c.07-.26.14-.52.22-.78s.14-.52.22-.77c.15-.51.3-1,.46-1.5s.26-.85.4-1.27.37-1.1.56-1.64.33-1,.51-1.42c.51-1.4,1-2.76,1.62-4.1.17-.41.34-.81.52-1.22.73-1.68,1.51-3.33,2.33-5,.14-.3.29-.59.44-.88,1-2,2.09-4.07,3.24-6.18,29.78-54.76,85-80.7,142.66-165.72C910.43,445.84,890.74,342.57,857.11,287.33Z" transform="translate(-98.58 -171.57)" style="fill: #fba309"/>
      <path d="M857.11,287.33C817.73,223,740.39,171.57,627.52,171.57c-1.46,0-2.92,0-4.38,0-.25,0-.51,0-.77,0-1.56,0-3.12.06-4.67.11-1.24,0-2.48.08-3.72.15-.59,0-1.18,0-1.77.08h-.31l-3.58.2-1.05.08c-1.34.08-2.68.18-4,.29-1.54.12-3.09.26-4.62.41l-.21,0c-1.4.13-2.79.28-4.18.44q-2.76.3-5.49.67c-1.33.17-2.67.35-4,.55l-.48.07c-1.27.19-2.54.38-3.79.59q-3.06.5-6.07,1.05l-2.32.44-1.72.33-.13,0c-1.27.25-2.53.52-3.78.79s-2.31.5-3.45.76l-1.28.3-3.1.74c-.63.15-1.26.31-1.88.48-.2,0-.41.09-.61.15-.95.24-1.88.48-2.82.74-1.26.33-2.52.68-3.77,1l-1,.29c-1.14.32-2.27.66-3.4,1l-.39.12c-1.39.42-2.76.85-4.13,1.29l-.15,0c-1.38.44-2.75.89-4.11,1.36-1.11.37-2.21.76-3.3,1.15-.42.14-.85.29-1.27.45-1.29.46-2.57.94-3.85,1.42s-2.58,1-3.86,1.5l-.09,0c-1.27.51-2.53,1-3.79,1.55l-.27.11L516.38,194l-.5.22c-1.16.51-2.32,1-3.47,1.55l-.3.13c-1.26.57-2.52,1.16-3.77,1.75l-3.76,1.82-.1.05c-1.26.63-2.52,1.26-3.77,1.91s-2.51,1.31-3.75,2-2.48,1.34-3.71,2-2.28,1.28-3.41,1.93l-.62.36L486,209.58l-.07,0c-1.19.71-2.38,1.44-3.55,2.17-.88.54-1.75,1.09-2.62,1.65l-1.52,1c-1.14.73-2.27,1.48-3.39,2.23s-1.93,1.3-2.88,2-1.86,1.29-2.78,1.95c-.45.31-.89.62-1.34,1q-8.94,6.4-17.24,13.48l-2,1.69c-1,.86-2,1.74-3,2.62-.83.73-1.65,1.47-2.46,2.23s-1.8,1.65-2.68,2.49c-.44.4-.87.81-1.3,1.23q-1.14,1.06-2.25,2.16c-.84.82-1.68,1.64-2.51,2.48q-6.09,6.09-11.75,12.51c-.82.93-1.64,1.87-2.44,2.81s-1.41,1.65-2.1,2.48-1.46,1.74-2.17,2.62c-.55.66-1.09,1.33-1.63,2l-1.82,2.28-2.46,3.17c-1.24,1.64-2.48,3.29-3.69,5-.47.64-.94,1.29-1.4,1.94-.13.18-.27.36-.39.55-.56.78-1.12,1.57-1.66,2.35-.69,1-1.37,2-2,3-1.08,1.58-2.13,3.17-3.17,4.77-.5.77-1,1.54-1.49,2.32l-.6.95a60.89,60.89,0,0,0,16.25,80.9h0L455,396c47.71-115.14,105-137.26,186.15-137.26C765.07,258.74,834,393,784.86,479.46c-41.31,59.08-112.4,98.47-149.38,165.24-29.14,52.54-23.6,113.16-23.07,150.68,0,.21,0,.42,0,.62h27.74a60.86,60.86,0,0,0,60.68-55.24c0-.2,0-.4,0-.59q.25-2.79.54-5.37c.07-.57.13-1.14.2-1.69s.13-1.11.2-1.65c.1-.73.19-1.45.3-2.15q.21-1.56.45-3c0-.34.11-.67.16-1,.11-.64.22-1.27.33-1.88.06-.34.12-.68.19-1,.16-.9.34-1.77.52-2.62a.15.15,0,0,1,0-.07c.18-.86.37-1.69.56-2.51.13-.56.26-1.11.4-1.65s.27-1.08.42-1.61q.09-.39.21-.78c.07-.26.14-.52.22-.78s.14-.52.22-.77c.15-.51.3-1,.46-1.5s.26-.85.4-1.27.37-1.1.56-1.64.33-1,.51-1.42c.51-1.4,1-2.76,1.62-4.1.17-.41.34-.81.52-1.22.73-1.68,1.51-3.33,2.33-5,.14-.3.29-.59.44-.88,1-2,2.09-4.07,3.24-6.18,29.78-54.76,85-80.7,142.66-165.72C910.43,445.84,890.74,342.57,857.11,287.33Z" transform="translate(-98.58 -171.57)" style="mix-blend-mode: color-burn;fill: url(#linear-gradient-15)"/>
      <path d="M856.7,451.19a11.37,11.37,0,0,1-7.53-11.44c.16-2.13.3-4.29.39-6.42a11,11,0,0,1,11.85-10.39,11.46,11.46,0,0,1,10.85,11.78c-.11,2.36-.25,4.75-.43,7.1a11,11,0,0,1-12.18,10A11.94,11.94,0,0,1,856.7,451.19Zm-.84-42.27a11.42,11.42,0,0,1-7.5-9.36,213.07,213.07,0,0,0-12.62-51.42A10.85,10.85,0,0,1,842.37,334,11.63,11.63,0,0,1,857,340.71a234.9,234.9,0,0,1,13.93,56.76,10.93,10.93,0,0,1-10,12.11A11.63,11.63,0,0,1,855.86,408.92ZM827.2,322.37a11.53,11.53,0,0,1-6.09-5.12A221.18,221.18,0,0,0,778.47,264a224.81,224.81,0,0,0-22.06-17.78,11,11,0,0,1-2.75-15.53,11.44,11.44,0,0,1,15.83-2.4,248.83,248.83,0,0,1,24.35,19.63,243.94,243.94,0,0,1,47,58.8,10.84,10.84,0,0,1-4.3,15.05A11.54,11.54,0,0,1,827.2,322.37Z" transform="translate(-98.58 -171.57)" style="fill: url(#linear-gradient-16)"/>
      <circle cx="529.92" cy="791.93" r="76.5" style="fill: #fba309"/>
      <path d="M704.22,963.5a76.56,76.56,0,0,1-99.41,73,76.53,76.53,0,0,0,0-146,76.56,76.56,0,0,1,99.41,73Z" transform="translate(-98.58 -171.57)" style="mix-blend-mode: color-burn;fill: url(#linear-gradient-17)"/>
      <path d="M674.53,1002.64a3.62,3.62,0,0,1-.73-4.33c.32-.61.64-1.24,1-1.86a3.62,3.62,0,0,1,6.49,3.19c-.33.69-.69,1.38-1,2.06a3.61,3.61,0,0,1-4.88,1.5A3.36,3.36,0,0,1,674.53,1002.64ZM679.77,990a3.62,3.62,0,0,1-1-3.71,69.42,69.42,0,0,0,3-16.86,3.62,3.62,0,1,1,7.22.39,76.89,76.89,0,0,1-3.27,18.61,3.6,3.6,0,0,1-4.51,2.38A3.65,3.65,0,0,1,679.77,990Zm2.81-29.29a3.64,3.64,0,0,1-1.13-2.27,70,70,0,0,0-5.62-21.09,71.45,71.45,0,0,0-4.18-8,3.61,3.61,0,1,1,6.17-3.74,77,77,0,0,1,10.82,32.1,3.61,3.61,0,0,1-6.06,3Z" transform="translate(-98.58 -171.57)" style="fill: url(#linear-gradient-18)"/>
    </g>
  </g>
</svg>
