<svg xmlns="http://www.w3.org/2000/svg" xmlns:xlink="http://www.w3.org/1999/xlink" width="994.42" height="860.05" viewBox="0 0 994.42 860.05">
  <defs>
    <linearGradient id="linear-gradient" x1="-9703.9" y1="1002.21" x2="-9655.38" y2="1002.21" gradientTransform="matrix(-1, 0, 0, 1, -8591.75, 0)" gradientUnits="userSpaceOnUse">
      <stop offset="0" stop-color="#fff"/>
      <stop offset="1" stop-color="#b7b7b7"/>
    </linearGradient>
    <linearGradient id="linear-gradient-2" x1="1063.95" y1="981.17" x2="1042.98" y2="1012.17" gradientUnits="userSpaceOnUse">
      <stop offset="0" stop-color="#fff"/>
      <stop offset="1" stop-color="#949494"/>
    </linearGradient>
    <linearGradient id="linear-gradient-3" x1="1047.78" y1="968.95" x2="911.47" y2="962.57" xlink:href="#linear-gradient-2"/>
    <linearGradient id="linear-gradient-4" x1="945.03" y1="922.74" x2="912.21" y2="992.04" xlink:href="#linear-gradient-2"/>
    <linearGradient id="linear-gradient-5" x1="925.83" y1="849.3" x2="827.36" y2="1018.88" gradientUnits="userSpaceOnUse">
      <stop offset="0" stop-color="#ff9a8b"/>
      <stop offset="1" stop-color="#ff6a88"/>
    </linearGradient>
    <linearGradient id="linear-gradient-6" x1="884.79" y1="880.44" x2="775.38" y2="1015.83" xlink:href="#linear-gradient-2"/>
    <linearGradient id="linear-gradient-7" x1="814.74" y1="782.38" x2="675.24" y2="1159.85" xlink:href="#linear-gradient-5"/>
    <linearGradient id="linear-gradient-8" x1="-17156.11" y1="1002.21" x2="-17107.59" y2="1002.21" gradientTransform="translate(17307.54)" xlink:href="#linear-gradient"/>
    <linearGradient id="linear-gradient-9" x1="8516.16" y1="981.17" x2="8495.19" y2="1012.17" gradientTransform="matrix(-1, 0, 0, 1, 8715.79, 0)" xlink:href="#linear-gradient-2"/>
    <linearGradient id="linear-gradient-10" x1="8499.99" y1="968.95" x2="8363.68" y2="962.57" gradientTransform="matrix(-1, 0, 0, 1, 8715.79, 0)" xlink:href="#linear-gradient-2"/>
    <linearGradient id="linear-gradient-11" x1="8397.24" y1="922.74" x2="8364.42" y2="992.04" gradientTransform="matrix(-1, 0, 0, 1, 8715.79, 0)" xlink:href="#linear-gradient-2"/>
    <linearGradient id="linear-gradient-12" x1="8378.04" y1="849.3" x2="8279.57" y2="1018.88" gradientTransform="matrix(-1, 0, 0, 1, 8715.79, 0)" xlink:href="#linear-gradient-5"/>
    <linearGradient id="linear-gradient-13" x1="8337" y1="880.44" x2="8227.59" y2="1015.83" gradientTransform="matrix(-1, 0, 0, 1, 8715.79, 0)" xlink:href="#linear-gradient-2"/>
    <linearGradient id="linear-gradient-14" x1="8266.95" y1="782.38" x2="8127.45" y2="1159.85" gradientTransform="matrix(-1, 0, 0, 1, 8715.79, 0)" xlink:href="#linear-gradient-5"/>
    <linearGradient id="linear-gradient-15" x1="724.13" y1="181.42" x2="434.61" y2="964.84" gradientUnits="userSpaceOnUse">
      <stop offset="0" stop-color="#ff6a88"/>
      <stop offset="1" stop-color="#ff9a8b"/>
    </linearGradient>
    <linearGradient id="linear-gradient-16" x1="524.38" y1="120.93" x2="1095.19" y2="693.91" gradientTransform="matrix(0.63, 0.59, -0.63, 0.67, 595.32, -331.08)" gradientUnits="userSpaceOnUse">
      <stop offset="0" stop-color="#fff"/>
      <stop offset="1" stop-color="#fff"/>
    </linearGradient>
    <linearGradient id="linear-gradient-17" x1="455.39" y1="640.81" x2="539.42" y2="640.81" gradientUnits="userSpaceOnUse">
      <stop offset="0" stop-color="#fff"/>
      <stop offset="1" stop-color="#5e5e5e"/>
    </linearGradient>
    <linearGradient id="linear-gradient-18" x1="454.42" y1="701.64" x2="539.45" y2="701.64" xlink:href="#linear-gradient-17"/>
    <linearGradient id="linear-gradient-19" x1="454.39" y1="761.64" x2="539.42" y2="761.64" xlink:href="#linear-gradient-17"/>
    <linearGradient id="linear-gradient-20" x1="588.97" y1="975.75" x2="673.62" y2="975.75" xlink:href="#linear-gradient-17"/>
    <linearGradient id="linear-gradient-21" x1="588.97" y1="1005.78" x2="624.59" y2="1005.78" xlink:href="#linear-gradient-17"/>
  </defs>
  <g style="isolation: isolate">
    <g id="main">
      <g>
        <path d="M776.44,578c-69.6,69.6-176.28,80-257,31.16-1.64-1-3.26-2-4.88-3s-2.91-1.89-4.35-2.87q-3.15-2.14-6.23-4.39-2.13-1.57-4.21-3.19A209.81,209.81,0,0,1,747.68,257.3c.78.54,1.57,1.1,2.35,1.66s1.42,1,2.13,1.54c1.35,1,2.68,2,4,3,.7.52,1.39,1.07,2.09,1.63,1.37,1.09,2.75,2.2,4.11,3.35q7.26,6,14.07,12.84A209.51,209.51,0,0,1,776.44,578Z" transform="translate(-134.58 -164.95)" fill="#a3ffff"/>
        <path d="M1086,983.2c16,4.76,13.54,19.84,13.54,19.84s12.3-7.91,24,.16c8.93,6.16,7.12,18.72-7.44,19.8H1014.45C1028,1000.49,1056,974.27,1086,983.2Z" transform="translate(-134.58 -164.95)" fill="#ff9a8b"/>
        <path d="M1086,983.2c16,4.76,13.54,19.84,13.54,19.84s12.3-7.91,24,.16c8.93,6.16,7.12,18.72-7.44,19.8H1014.45C1028,1000.49,1056,974.27,1086,983.2Z" transform="translate(-134.58 -164.95)" fill="url(#linear-gradient)" style="mix-blend-mode: color-burn"/>
        <path d="M1072.84,981.43c-24.83.54-46.89,22.4-58.39,41.57h32.23C1066.29,1016.49,1076.28,998.38,1072.84,981.43Z" transform="translate(-134.58 -164.95)" fill="url(#linear-gradient-2)" style="mix-blend-mode: color-burn"/>
        <path d="M955.73,903.94c49.46,13.65,20.71,78,20.71,78s28.43-47.11,69-26.62c26.79,13.55,26.32,52.26-6.6,67.68H875.23C867.67,949.19,905,889.93,955.73,903.94Z" transform="translate(-134.58 -164.95)" fill="#ff6a88"/>
        <path d="M955.73,903.94c49.46,13.65,20.71,78,20.71,78s28.43-47.11,69-26.62c26.79,13.55,26.32,52.26-6.6,67.68H875.23C867.67,949.19,905,889.93,955.73,903.94Z" transform="translate(-134.58 -164.95)" fill="url(#linear-gradient-3)" style="mix-blend-mode: color-burn"/>
        <path d="M984.27,936.35c-1.81-14-9.19-27.07-28.54-32.41-50.77-14-88.06,45.25-80.5,119.06H936A222.42,222.42,0,0,0,984.27,936.35Z" transform="translate(-134.58 -164.95)" fill="url(#linear-gradient-4)" style="mix-blend-mode: color-burn"/>
        <path d="M931.32,1023a223.78,223.78,0,0,0,22-191.57c-16.7,8-44.46,21.35-74,36.25-29.73,15.22-61.3,32-88.91,54.32-28.78,23.29-46.6,55.38-62.92,88q-3.18,6.54-6.26,13Z" transform="translate(-134.58 -164.95)" fill="url(#linear-gradient-5)"/>
        <path d="M934.6,929.54a2.27,2.27,0,0,0-2.75-1.82q-17.07,3.78-34,6.23,13.44-18.23,25.2-37.71a2.33,2.33,0,0,0-4-2.41q-11.64,19.29-25,37.35-2.71-16.74-6.56-32.87a2.46,2.46,0,0,0-2.75-1.82,2,2,0,0,0-1.7,2.53q4.3,18.26,7.14,37.33a482.51,482.51,0,0,1-36.36,42.57A441.5,441.5,0,0,0,847.39,916a2.55,2.55,0,0,0-2.58-2.05,1.88,1.88,0,0,0-1.81,2.26,438.7,438.7,0,0,1,6.43,67.35,482.67,482.67,0,0,1-41.52,37.52,435.92,435.92,0,0,0,1-73.26,2.61,2.61,0,0,0-2.34-2.33,1.82,1.82,0,0,0-2,2,433.87,433.87,0,0,1-1.52,75.53h9.83a489.62,489.62,0,0,0,39.85-36.19A477.91,477.91,0,0,0,924,981.4a2.69,2.69,0,0,0,2.24-2.8,2.2,2.2,0,0,0-2.58-2.05,476.21,476.21,0,0,1-66.4,5.6,488.67,488.67,0,0,0,36.71-43q19.18-2.52,38.68-6.76A2.51,2.51,0,0,0,934.6,929.54Zm-170.86,71.9a1.94,1.94,0,0,0-2.39,1.72q-1.08,9.87-2.65,19.84h4.54q1.44-9.48,2.44-18.89A2.52,2.52,0,0,0,763.74,1001.44Z" transform="translate(-134.58 -164.95)" fill="#9e9e9e" style="mix-blend-mode: color-burn"/>
        <path d="M879.3,867.68c-29.73,15.22-61.3,32-88.91,54.32-28.78,23.29-46.6,55.38-62.92,88q-3.18,6.54-6.26,13H833.62a193.32,193.32,0,0,0,30-39c24.69-41.84,34-86.46,34.45-125.7C892,861.33,885.67,864.47,879.3,867.68Z" transform="translate(-134.58 -164.95)" fill="url(#linear-gradient-6)" style="mix-blend-mode: color-burn"/>
        <path d="M826.28,1023a194.32,194.32,0,0,0,28-47.68c23.09-55.85,22-112.6,11.4-156.5a261,261,0,0,0-43.22-93.39c-15.83,14.66-42.13,39.14-69.93,66-27.85,27.23-57.2,56.82-80.23,91.23-24,35.89-32.76,77.78-39.67,119.7-1.06,6.92-2.07,13.84-3,20.68Z" transform="translate(-134.58 -164.95)" fill="url(#linear-gradient-7)"/>
        <path d="M843.14,898.68a2.58,2.58,0,0,0-3.59-1.39,556.1,556.1,0,0,1-72,29.19,568.45,568.45,0,0,0,26-60.56q20.5-9.43,40.74-20.89a2.94,2.94,0,0,0,1.14-3.86,2.63,2.63,0,0,0-3.69-1.08q-17.7,10.11-35.65,18.67,8.67-24.93,15-50.71a2.72,2.72,0,0,0-5.29-1.3Q799.58,832.25,791,857q-8.81-17.7-18.67-34.33a2.86,2.86,0,0,0-3.69-1.08,2.39,2.39,0,0,0-1,3.41q11.1,18.84,20.85,39.1a564.23,564.23,0,0,1-25.77,60,516.07,516.07,0,0,0-29-67.84,3,3,0,0,0-3.59-1.39,2.19,2.19,0,0,0-1.23,3.14,513.56,513.56,0,0,1,30.44,72.78A562.36,562.36,0,0,1,726,986.88a507.72,507.72,0,0,0-24.17-81.94,3,3,0,0,0-3.4-1.79,2.12,2.12,0,0,0-1.55,2.93,505.82,505.82,0,0,1,24.88,87Q711.14,1008.4,699.5,1023h7q10.29-13.12,19.78-26.82a567.09,567.09,0,0,0,93.12-24.67,3.19,3.19,0,0,0,2-3.74,2.54,2.54,0,0,0-3.4-1.79,564.85,564.85,0,0,1-87.42,23.93,568.93,568.93,0,0,0,33.6-56.67,559.1,559.1,0,0,0,77.5-30.66A3.15,3.15,0,0,0,843.14,898.68ZM670,980.3A2.26,2.26,0,0,0,668,983q3.81,19.58,6.08,40h5.34q-2.36-20.6-6.27-40.39A2.94,2.94,0,0,0,670,980.3Z" transform="translate(-134.58 -164.95)" fill="#9e9e9e" style="mix-blend-mode: color-burn"/>
        <path d="M177.56,983.2C161.58,988,164,1003,164,1003s-12.3-7.91-24,.16c-8.93,6.16-7.12,18.72,7.44,19.8H249.13C235.63,1000.49,207.58,974.27,177.56,983.2Z" transform="translate(-134.58 -164.95)" fill="#ff9a8b"/>
        <path d="M177.56,983.2C161.58,988,164,1003,164,1003s-12.3-7.91-24,.16c-8.93,6.16-7.12,18.72,7.44,19.8H249.13C235.63,1000.49,207.58,974.27,177.56,983.2Z" transform="translate(-134.58 -164.95)" fill="url(#linear-gradient-8)" style="mix-blend-mode: color-burn"/>
        <path d="M190.74,981.43c24.83.54,46.89,22.4,58.39,41.57H216.9C197.29,1016.49,187.3,998.38,190.74,981.43Z" transform="translate(-134.58 -164.95)" fill="url(#linear-gradient-9)" style="mix-blend-mode: color-burn"/>
        <path d="M307.85,903.94c-49.46,13.65-20.71,78-20.71,78s-28.43-47.11-68.95-26.62c-26.79,13.55-26.32,52.26,6.6,67.68H388.35C395.91,949.19,358.62,889.93,307.85,903.94Z" transform="translate(-134.58 -164.95)" fill="#ff6a88"/>
        <path d="M307.85,903.94c-49.46,13.65-20.71,78-20.71,78s-28.43-47.11-68.95-26.62c-26.79,13.55-26.32,52.26,6.6,67.68H388.35C395.91,949.19,358.62,889.93,307.85,903.94Z" transform="translate(-134.58 -164.95)" fill="url(#linear-gradient-10)" style="mix-blend-mode: color-burn"/>
        <path d="M279.31,936.35c1.81-14,9.19-27.07,28.54-32.41,50.77-14,88.06,45.25,80.5,119.06H327.56A222.42,222.42,0,0,1,279.31,936.35Z" transform="translate(-134.58 -164.95)" fill="url(#linear-gradient-11)" style="mix-blend-mode: color-burn"/>
        <path d="M332.26,1023a223.78,223.78,0,0,1-22-191.57c16.7,8,44.45,21.35,74,36.25,29.74,15.22,61.3,32,88.91,54.32,28.78,23.29,46.6,55.38,62.92,88q3.18,6.54,6.26,13Z" transform="translate(-134.58 -164.95)" fill="url(#linear-gradient-12)"/>
        <path d="M330.9,932.41q19.47,4.25,38.68,6.76a488.67,488.67,0,0,0,36.71,43,476.21,476.21,0,0,1-66.4-5.6,2.2,2.2,0,0,0-2.58,2.05,2.69,2.69,0,0,0,2.24,2.8,477.91,477.91,0,0,0,71.27,5.41A489.62,489.62,0,0,0,450.67,1023h9.83A433.87,433.87,0,0,1,459,947.47a1.82,1.82,0,0,0-2-2,2.59,2.59,0,0,0-2.33,2.33,434.85,434.85,0,0,0,1,73.26,484.17,484.17,0,0,1-41.52-37.52,440,440,0,0,1,6.43-67.35,1.88,1.88,0,0,0-1.81-2.26,2.55,2.55,0,0,0-2.58,2.05,441.5,441.5,0,0,0-6.53,62.94,482.51,482.51,0,0,1-36.36-42.57q2.82-19.07,7.14-37.33a2,2,0,0,0-1.7-2.53,2.46,2.46,0,0,0-2.75,1.82q-3.84,16.11-6.56,32.87-13.31-18-24.95-37.35a2.34,2.34,0,0,0-4,2.41q11.75,19.47,25.2,37.71-16.87-2.44-33.95-6.23a2.27,2.27,0,0,0-2.75,1.82A2.51,2.51,0,0,0,330.9,932.41Zm167,71.7q1,9.4,2.44,18.89h4.54q-1.56-10-2.65-19.84a1.94,1.94,0,0,0-2.39-1.72A2.52,2.52,0,0,0,497.9,1004.11Z" transform="translate(-134.58 -164.95)" fill="#9e9e9e" style="mix-blend-mode: color-burn"/>
        <path d="M384.28,867.68c29.74,15.22,61.3,32,88.91,54.32,28.78,23.29,46.6,55.38,62.92,88q3.18,6.54,6.26,13H430a193.32,193.32,0,0,1-30-39c-24.69-41.84-34-86.46-34.45-125.7C371.63,861.33,377.91,864.47,384.28,867.68Z" transform="translate(-134.58 -164.95)" fill="url(#linear-gradient-13)" style="mix-blend-mode: color-burn"/>
        <path d="M437.3,1023a194.32,194.32,0,0,1-27.95-47.68c-23.09-55.85-22-112.6-11.4-156.5a261,261,0,0,1,43.22-93.39c15.84,14.66,42.13,39.14,69.93,66,27.85,27.23,57.2,56.82,80.23,91.23,24,35.89,32.76,77.78,39.67,119.7,1.06,6.92,2.07,13.84,3,20.68Z" transform="translate(-134.58 -164.95)" fill="url(#linear-gradient-14)"/>
        <path d="M422,902.58a558.72,558.72,0,0,0,77.51,30.66,566.93,566.93,0,0,0,33.59,56.67A564.85,564.85,0,0,1,445.65,966a2.54,2.54,0,0,0-3.4,1.79,3.19,3.19,0,0,0,2,3.74,567.09,567.09,0,0,0,93.12,24.67q9.48,13.68,19.78,26.82h7q-11.62-14.61-22.26-29.92a505.82,505.82,0,0,1,24.88-87,2.12,2.12,0,0,0-1.55-2.93,3,3,0,0,0-3.4,1.79,507.72,507.72,0,0,0-24.17,81.94,562.36,562.36,0,0,1-33.27-56.14A513.56,513.56,0,0,1,534.75,858a2.19,2.19,0,0,0-1.23-3.14,3,3,0,0,0-3.59,1.39,516.07,516.07,0,0,0-29,67.84,564.23,564.23,0,0,1-25.77-60Q484.87,843.82,496,825a2.38,2.38,0,0,0-1-3.41,2.86,2.86,0,0,0-3.69,1.08q-9.86,16.62-18.67,34.33-8.6-24.69-14.88-50.22a2.72,2.72,0,0,0-5.29,1.3q6.35,25.76,15,50.71-17.94-8.55-35.65-18.67a2.63,2.63,0,0,0-3.69,1.08,2.94,2.94,0,0,0,1.14,3.86q20.22,11.46,40.74,20.89a568.45,568.45,0,0,0,26,60.56,556.1,556.1,0,0,1-72-29.19,2.57,2.57,0,0,0-3.58,1.39A3.13,3.13,0,0,0,422,902.58Zm168.5,80q-3.91,19.78-6.27,40.39h5.34q2.26-20.36,6.08-40a2.26,2.26,0,0,0-2.07-2.74A3,3,0,0,0,590.47,982.61Z" transform="translate(-134.58 -164.95)" fill="#9e9e9e" style="mix-blend-mode: color-burn"/>
        <path d="M819.22,242.07q-9.11-9-18.84-17c-2.18-1.78-4.38-3.53-6.6-5.23q-6.53-5-13.29-9.57l-2.11-1.41q-2.11-1.38-4.23-2.73h0q-2-1.29-4.08-2.53c-2.65-1.61-5.32-3.16-8-4.68q-3.78-2.11-7.62-4.11L750.82,193q-3.51-1.74-7.05-3.39c-2.21-1-4.43-2-6.67-3h0c-96.87-41.68-213.44-23.18-292.84,55.47-103.39,102.42-105.2,270.08-4,374.62a266.37,266.37,0,0,0,28.08,25.18c1.19.92,3.58,3.13,3.58,3.13h.65c1.19.9,2.38,1.79,3.59,2.67q5,3.68,10.18,7.07A262.41,262.41,0,0,0,611,697.27v.11l-.29,15.83-16.29,16.42A22.13,22.13,0,0,0,588,745.21v3.2l1,29.73-1,31.16L589,839l-1,30.33,1,29.73-1,29.82,1,29.73v55.6a8.53,8.53,0,0,0,2,6.89,10.61,10.61,0,0,0,1.74,1.74l.46.34a1.51,1.51,0,0,0,.26.18c1.76,1.19,6.17,1.61,6.17,1.61h64.29s10.43-4.08,11-9.66c0-.36.06-.73-.87-1.1l1-28.6V956l1-30.27L675,896l1-31.1-1-29.67V744.87a21.06,21.06,0,0,0-6.26-15.62l-16.43-16.43L652,696.88a265.3,265.3,0,0,0,171.16-80.19C924.42,512.15,922.61,344.49,819.22,242.07ZM528.3,584.14c-1.84-1.25-3.67-2.54-5.47-3.86q-1.86-1.37-3.71-2.8A184.5,184.5,0,0,1,501.3,301c64.06-64.06,163.88-71.07,235.76-21l2.07,1.46,1.87,1.36c1.19.87,2.36,1.75,3.53,2.66l1.83,1.43q1.82,1.44,3.62,3,6.28,5.26,12.19,11.16a184.23,184.23,0,0,1,0,260.86c-62.39,62.39-158.66,70.67-230,24.86C530.84,585.85,529.57,585,528.3,584.14Z" transform="translate(-134.58 -164.95)" fill="url(#linear-gradient-15)"/>
        <path d="M823.51,560.48a11.93,11.93,0,0,1-2.1-14.44c1.13-2.07,2.24-4.18,3.31-6.28A12.33,12.33,0,0,1,841,534.07a11.81,11.81,0,0,1,5.17,16.11c-1.18,2.31-2.41,4.65-3.66,6.93a12.31,12.31,0,0,1-16.4,5.2A11.38,11.38,0,0,1,823.51,560.48ZM842,517.83a11.82,11.82,0,0,1-3-12.35,238.2,238.2,0,0,0,11.2-56.5,12.53,12.53,0,0,1,12.91-11.56A11.62,11.62,0,0,1,874.21,450a262.34,262.34,0,0,1-12.36,62.36,12.45,12.45,0,0,1-15.25,8.14A11.5,11.5,0,0,1,842,517.83Zm11.64-98a11.63,11.63,0,0,1-3.59-7.55A227.89,227.89,0,0,0,832.91,342a224.33,224.33,0,0,0-13.32-26.58A12.32,12.32,0,0,1,824,298.76a11.84,11.84,0,0,1,16.48,3.88A248.77,248.77,0,0,1,855.18,332a251.79,251.79,0,0,1,18.9,77.56A12.55,12.55,0,0,1,863,422.9,11.68,11.68,0,0,1,853.62,419.8Z" transform="translate(-134.58 -164.95)" fill="url(#linear-gradient-16)"/>
        <polygon points="539.42 669.5 539.39 699.18 455.6 612.37 455.42 612.18 455.39 582.44 455.57 582.63 539.25 669.32 539.42 669.5" fill="url(#linear-gradient-17)" style="mix-blend-mode: color-burn"/>
        <polygon points="539.45 730.29 539.27 730.11 454.61 643.48 454.42 643.29 454.45 673.05 454.63 673.24 539.24 759.81 539.42 759.99 539.45 730.29" fill="url(#linear-gradient-18)" style="mix-blend-mode: color-burn"/>
        <polygon points="539.42 790.27 539.39 820.01 454.42 733.07 454.39 703.27 539.42 790.27" fill="url(#linear-gradient-19)" style="mix-blend-mode: color-burn"/>
        <path d="M673.62,1014.11a10.9,10.9,0,0,1-10.74,9.89h-8.62l-65.07-66.58-.19-.19,0-29.73Z" transform="translate(-134.58 -164.95)" fill="url(#linear-gradient-20)" style="mix-blend-mode: color-burn"/>
        <path d="M624.59,1024H600a10.53,10.53,0,0,1-6.21-2,1.14,1.14,0,0,1-.25-.18,5.3,5.3,0,0,1-.45-.34l-1.71-1.74a11.2,11.2,0,0,1-2.37-6.89l0-25.27Z" transform="translate(-134.58 -164.95)" fill="url(#linear-gradient-21)" style="mix-blend-mode: color-burn"/>
        <path d="M692.9,536.19a184.29,184.29,0,0,1-156.5,52.12q-2.16-1.3-4.29-2.67c-1.29-.82-2.56-1.66-3.83-2.53-1.84-1.25-3.67-2.54-5.47-3.86-1.25-.92-2.48-1.85-3.71-2.8a186.1,186.1,0,0,1-17.64-15.54A184.4,184.4,0,0,1,658,248q4.88,2.94,9.61,6.23l2.07,1.46,1.87,1.36c1.19.87,2.36,1.75,3.53,2.66.61.46,1.22.94,1.83,1.43q1.82,1.44,3.62,3,6.38,5.29,12.37,11.29A184.21,184.21,0,0,1,692.9,536.19Z" transform="translate(-134.58 -164.95)" fill="#4affff"/>
      </g>
    </g>
  </g>
</svg>
