<svg id="Layer_1" data-name="Layer 1" xmlns="http://www.w3.org/2000/svg" viewBox="0 0 801.31 239.33"><defs><style>.cls-1{fill:#fff;}.cls-2{fill:#f6c024;}.cls-3{fill:#f7b11b;}.cls-4{fill:#f99d1c;}.cls-5{fill:#f57e20;}</style></defs><path class="cls-1" d="M483.06,0H542.3a0,0,0,0,1,0,0V239.33a0,0,0,0,1,0,0h0a59.23,59.23,0,0,1-59.23-59.23V0A0,0,0,0,1,483.06,0Z"/><polygon class="cls-1" points="671.03 191.46 611.8 191.46 483.06 0 542.3 0 671.03 191.46"/><polygon class="cls-1" points="613.35 191.46 672.58 191.46 801.31 0 742.08 0 613.35 191.46"/><path class="cls-1" d="M742.08,0h59.23a0,0,0,0,1,0,0V180.09a59.23,59.23,0,0,1-59.23,59.23h0a0,0,0,0,1,0,0V0A0,0,0,0,1,742.08,0Z"/><path class="cls-2" d="M0,0H59.23a0,0,0,0,1,0,0V239.33a0,0,0,0,1,0,0h0A59.23,59.23,0,0,1,0,180.09V0A0,0,0,0,1,0,0Z"/><polygon class="cls-3" points="187.97 191.46 128.74 191.46 0 0 59.23 0 187.97 191.46"/><polygon class="cls-4" points="130.28 191.46 189.51 191.46 318.25 0 259.02 0 130.28 191.46"/><path class="cls-5" d="M259,0h59.23a0,0,0,0,1,0,0V180.09A59.23,59.23,0,0,1,259,239.33h0a0,0,0,0,1,0,0V0A0,0,0,0,1,259,0Z"/></svg>