<svg xmlns="http://www.w3.org/2000/svg" xmlns:xlink="http://www.w3.org/1999/xlink" width="1786.5" height="1460.37" viewBox="0 0 1786.5 1460.37">
  <defs>
    <linearGradient id="linear-gradient" x1="-9399.05" y1="1765.35" x2="-9316.84" y2="1765.35" gradientTransform="matrix(-1, 0, 0, 1, -7183.75, 0)" gradientUnits="userSpaceOnUse">
      <stop offset="0" stop-color="#fff"/>
      <stop offset="1" stop-color="#b7b7b7"/>
    </linearGradient>
    <linearGradient id="linear-gradient-2" x1="2133.64" y1="1729.72" x2="2098.11" y2="1782.24" gradientUnits="userSpaceOnUse">
      <stop offset="0" stop-color="#fff"/>
      <stop offset="1" stop-color="#949494"/>
    </linearGradient>
    <linearGradient id="linear-gradient-3" x1="2106.24" y1="1709.01" x2="1875.29" y2="1698.19" xlink:href="#linear-gradient-2"/>
    <linearGradient id="linear-gradient-4" x1="1932.16" y1="1630.72" x2="1876.55" y2="1748.12" xlink:href="#linear-gradient-2"/>
    <linearGradient id="linear-gradient-5" x1="1899.62" y1="1506.28" x2="1732.79" y2="1793.59" gradientUnits="userSpaceOnUse">
      <stop offset="0" stop-color="#fbb53d"/>
      <stop offset="1" stop-color="#ff3803"/>
    </linearGradient>
    <linearGradient id="linear-gradient-6" x1="1830.08" y1="1559.05" x2="1644.72" y2="1788.44" xlink:href="#linear-gradient-2"/>
    <linearGradient id="linear-gradient-7" x1="1711.4" y1="1392.9" x2="1475.05" y2="2032.44" xlink:href="#linear-gradient-5"/>
    <linearGradient id="linear-gradient-8" x1="-16821.64" y1="1765.35" x2="-16739.43" y2="1765.35" gradientTransform="translate(17307.54)" xlink:href="#linear-gradient"/>
    <linearGradient id="linear-gradient-9" x1="9556.23" y1="1729.72" x2="9520.7" y2="1782.24" gradientTransform="matrix(-1, 0, 0, 1, 10123.79, 0)" xlink:href="#linear-gradient-2"/>
    <linearGradient id="linear-gradient-10" x1="9528.82" y1="1709.01" x2="9297.88" y2="1698.19" gradientTransform="matrix(-1, 0, 0, 1, 10123.79, 0)" xlink:href="#linear-gradient-2"/>
    <linearGradient id="linear-gradient-11" x1="9354.75" y1="1630.72" x2="9299.13" y2="1748.12" gradientTransform="matrix(-1, 0, 0, 1, 10123.79, 0)" xlink:href="#linear-gradient-2"/>
    <linearGradient id="linear-gradient-12" x1="9322.21" y1="1506.28" x2="9155.38" y2="1793.59" gradientTransform="matrix(-1, 0, 0, 1, 10123.79, 0)" xlink:href="#linear-gradient-5"/>
    <linearGradient id="linear-gradient-13" x1="9252.67" y1="1559.05" x2="9067.31" y2="1788.44" gradientTransform="matrix(-1, 0, 0, 1, 10123.79, 0)" xlink:href="#linear-gradient-2"/>
    <linearGradient id="linear-gradient-14" x1="9133.99" y1="1392.9" x2="8897.63" y2="2032.44" gradientTransform="matrix(-1, 0, 0, 1, 10123.79, 0)" xlink:href="#linear-gradient-5"/>
    <linearGradient id="linear-gradient-15" x1="1667.33" y1="1416.67" x2="1667.33" y2="794.82" gradientUnits="userSpaceOnUse">
      <stop offset="0" stop-color="#fff"/>
      <stop offset="1" stop-color="#a3a3a3"/>
    </linearGradient>
    <linearGradient id="linear-gradient-16" x1="1350.16" y1="1416.67" x2="1350.16" y2="347.19" xlink:href="#linear-gradient-15"/>
    <linearGradient id="linear-gradient-17" x1="1221.51" y1="1774.35" x2="1479.69" y2="1774.35" gradientUnits="userSpaceOnUse">
      <stop offset="0" stop-color="#0f1e2d"/>
      <stop offset="1" stop-color="#082947"/>
    </linearGradient>
    <linearGradient id="linear-gradient-18" x1="893.25" y1="1134.73" x2="893.25" y2="1105.85" xlink:href="#linear-gradient-17"/>
    <linearGradient id="linear-gradient-19" x1="1350.6" y1="1469.42" x2="1350.6" y2="1763.6" gradientUnits="userSpaceOnUse">
      <stop offset="0" stop-color="#e94560"/>
      <stop offset="0.96" stop-color="#ad1035"/>
    </linearGradient>
    <linearGradient id="linear-gradient-20" x1="893.25" y1="1281.49" x2="893.25" y2="1085.38" xlink:href="#linear-gradient-2"/>
    <linearGradient id="linear-gradient-21" x1="1350.21" y1="1472.78" x2="1350.21" y2="2040.5" xlink:href="#linear-gradient-2"/>
    <linearGradient id="linear-gradient-22" x1="1351.46" y1="340.21" x2="1351.46" y2="1423.65" gradientUnits="userSpaceOnUse">
      <stop offset="0" stop-color="#fff"/>
      <stop offset="1" stop-color="#5e5e5e"/>
    </linearGradient>
    <linearGradient id="linear-gradient-23" x1="1115.58" y1="269.57" x2="1115.58" y2="2025.66" xlink:href="#linear-gradient-22"/>
    <linearGradient id="linear-gradient-24" x1="1215.31" y1="1447.86" x2="1215.31" y2="1793.35" xlink:href="#linear-gradient-2"/>
    <linearGradient id="linear-gradient-25" x1="1192.43" y1="121.88" x2="2004.99" y2="937.53" gradientUnits="userSpaceOnUse">
      <stop offset="0" stop-color="#fff"/>
      <stop offset="1" stop-color="#fff"/>
    </linearGradient>
    <linearGradient id="linear-gradient-26" x1="1350.6" y1="975.66" x2="1350.6" y2="1453.31" xlink:href="#linear-gradient-25"/>
  </defs>
  <g style="isolation: isolate">
    <g id="Layer_1" data-name="Layer 1">
      <path d="M1037.59,1135.93c-84.79-83.6-137.51-200.81-137.51-330.57,0-254,202-459.87,451.1-459.87s451.09,205.88,451.09,459.87c0,129.76-52.72,247-137.5,330.57h.16c-14.32,18.08-20.65,26-30.63,38.32-50.55,62.52-81.72,106.39-81.72,159.39l-.75,95.28H1147.89l-1.46-87.11c0-53-27.82-105-78.36-167.56" transform="translate(-457.35 -340.21)" style="fill: #fcb63a;mix-blend-mode: color-burn"/>
      <g>
        <g>
          <g>
            <path d="M2171,1733.15c27.07,8.07,22.94,33.61,22.94,33.61s20.84-13.39,40.67.28c15.14,10.43,12.07,31.72-12.6,33.54H2049.78C2072.65,1762.45,2120.17,1718,2171,1733.15Z" transform="translate(-457.35 -340.21)" style="fill: #ffd97b"/>
            <path d="M2171,1733.15c27.07,8.07,22.94,33.61,22.94,33.61s20.84-13.39,40.67.28c15.14,10.43,12.07,31.72-12.6,33.54H2049.78C2072.65,1762.45,2120.17,1718,2171,1733.15Z" transform="translate(-457.35 -340.21)" style="mix-blend-mode: color-burn;fill: url(#linear-gradient)"/>
          </g>
          <path d="M2148.7,1730.14c-42.08.92-79.44,38-98.92,70.44h54.59C2137.6,1789.55,2154.53,1758.87,2148.7,1730.14Z" transform="translate(-457.35 -340.21)" style="mix-blend-mode: color-burn;fill: url(#linear-gradient-2)"/>
          <g>
            <path d="M1950.27,1598.86c83.8,23.13,35.09,132.15,35.09,132.15s48.18-79.82,116.83-45.1c45.39,23,44.6,88.55-11.19,114.67H1813.89C1801.08,1675.52,1864.26,1575.13,1950.27,1598.86Z" transform="translate(-457.35 -340.21)" style="fill: #f97c15"/>
            <path d="M1950.27,1598.86c83.8,23.13,35.09,132.15,35.09,132.15s48.18-79.82,116.83-45.1c45.39,23,44.6,88.55-11.19,114.67H1813.89C1801.08,1675.52,1864.26,1575.13,1950.27,1598.86Z" transform="translate(-457.35 -340.21)" style="mix-blend-mode: color-burn;fill: url(#linear-gradient-3)"/>
          </g>
          <path d="M1998.63,1653.78c-3.07-23.67-15.57-45.87-48.36-54.92-86-23.73-149.19,76.66-136.38,201.72h103C1958.71,1754.48,1984.7,1701.63,1998.63,1653.78Z" transform="translate(-457.35 -340.21)" style="mix-blend-mode: color-burn;fill: url(#linear-gradient-4)"/>
          <g>
            <path d="M1908.92,1800.58c37.3-58.6,53.61-122.18,57.06-176.36A378.87,378.87,0,0,0,1946.22,1476c-28.28,13.52-75.31,36.16-125.44,61.41-50.37,25.8-103.85,54.21-150.64,92-48.75,39.47-79,93.83-106.61,149-3.58,7.37-7.13,14.76-10.6,22.1Z" transform="translate(-457.35 -340.21)" style="fill: url(#linear-gradient-5)"/>
            <path d="M1914.48,1642.24a3.85,3.85,0,0,0-4.66-3.1q-28.92,6.42-57.51,10.56,22.76-30.87,42.69-63.89a4,4,0,0,0-6.77-4.08Q1868.52,1614.4,1846,1645q-4.6-28.37-11.13-55.69a4.16,4.16,0,0,0-4.65-3.09,3.47,3.47,0,0,0-2.88,4.3q7.29,30.92,12.1,63.23a816.73,816.73,0,0,1-61.6,72.14,749.83,749.83,0,0,0-11.07-106.65,4.33,4.33,0,0,0-4.37-3.47,3.18,3.18,0,0,0-3.06,3.83,747.62,747.62,0,0,1,10.89,114.11,818.29,818.29,0,0,1-70.35,63.57,736.11,736.11,0,0,0,1.75-124.12,4.39,4.39,0,0,0-3.95-3.94,3.08,3.08,0,0,0-3.41,3.39,734.89,734.89,0,0,1-2.58,128h16.66a827.17,827.17,0,0,0,67.51-61.31,810.29,810.29,0,0,0,120.76-9.17,4.55,4.55,0,0,0,3.79-4.74,3.73,3.73,0,0,0-4.37-3.48,807.49,807.49,0,0,1-112.5,9.49,826.21,826.21,0,0,0,62.2-72.83q32.52-4.26,65.53-11.44A4.26,4.26,0,0,0,1914.48,1642.24ZM1625,1764.05a3.28,3.28,0,0,0-4,2.92q-1.85,16.72-4.5,33.61h7.69q2.44-16.07,4.14-32A4.29,4.29,0,0,0,1625,1764.05Z" transform="translate(-457.35 -340.21)" style="fill: #9e9e9e;mix-blend-mode: color-burn"/>
          </g>
          <path d="M1820.78,1537.42c-50.37,25.8-103.85,54.21-150.64,92-48.75,39.46-79,93.83-106.61,149-3.58,7.37-7.13,14.76-10.6,22.1h190.46a327.72,327.72,0,0,0,50.81-66c41.84-70.91,57.61-146.49,58.36-213C1842.22,1526.67,1831.57,1532,1820.78,1537.42Z" transform="translate(-457.35 -340.21)" style="mix-blend-mode: color-burn;fill: url(#linear-gradient-6)"/>
          <g>
            <path d="M1731,1800.58a329.41,329.41,0,0,0,47.35-80.78c39.13-94.63,37.3-190.78,19.32-265.16-17.83-75.25-51.82-128.72-73.24-158.22-26.82,24.83-71.37,66.3-118.47,111.74-47.18,46.15-96.92,96.27-136,154.58-40.65,60.8-55.49,131.78-67.21,202.8-1.8,11.73-3.5,23.45-5.12,35Z" transform="translate(-457.35 -340.21)" style="fill: url(#linear-gradient-7)"/>
            <path d="M1759.51,1590a4.36,4.36,0,0,0-6.08-2.35,942.55,942.55,0,0,1-122,49.45,964.73,964.73,0,0,0,44.1-102.61q34.74-16,69-35.4a5,5,0,0,0,1.94-6.53,4.47,4.47,0,0,0-6.25-1.84q-30,17.14-60.4,31.64,14.69-42.25,25.45-85.91a4.6,4.6,0,0,0-8.94-2.2q-10.65,43.2-25.22,85.08-14.91-30-31.63-58.17a4.87,4.87,0,0,0-6.26-1.83,4,4,0,0,0-1.71,5.77q18.79,31.93,35.33,66.25a954.18,954.18,0,0,1-43.67,101.63A875.84,875.84,0,0,0,1574,1518a5.07,5.07,0,0,0-6.08-2.35,3.71,3.71,0,0,0-2.09,5.32,869.21,869.21,0,0,1,51.58,123.32,955.25,955.25,0,0,1-56.37,95.11,860.93,860.93,0,0,0-41-138.83,5.13,5.13,0,0,0-5.77-3,3.59,3.59,0,0,0-2.62,5,857.48,857.48,0,0,1,42.16,147.41q-18,26-37.73,50.69h11.78q17.43-22.24,33.52-45.44a960.1,960.1,0,0,0,157.77-41.8,5.42,5.42,0,0,0,3.36-6.34,4.31,4.31,0,0,0-5.76-3,957.23,957.23,0,0,1-148.11,40.55,964.34,964.34,0,0,0,56.91-96,945.16,945.16,0,0,0,131.31-52A5.31,5.31,0,0,0,1759.51,1590Zm-293.28,138.28a3.82,3.82,0,0,0-3.51,4.65q6.43,33.18,10.3,67.7h9q-4-34.87-10.61-68.44A5,5,0,0,0,1466.23,1728.23Z" transform="translate(-457.35 -340.21)" style="fill: #9e9e9e;mix-blend-mode: color-burn"/>
          </g>
        </g>
        <g>
          <g>
            <path d="M530.17,1733.15c-27.07,8.07-22.94,33.61-22.94,33.61s-20.84-13.39-40.67.28c-15.14,10.43-12.07,31.72,12.6,33.54H651.42C628.55,1762.45,581,1718,530.17,1733.15Z" transform="translate(-457.35 -340.21)" style="fill: #ffd97b"/>
            <path d="M530.17,1733.15c-27.07,8.07-22.94,33.61-22.94,33.61s-20.84-13.39-40.67.28c-15.14,10.43-12.07,31.72,12.6,33.54H651.42C628.55,1762.45,581,1718,530.17,1733.15Z" transform="translate(-457.35 -340.21)" style="mix-blend-mode: color-burn;fill: url(#linear-gradient-8)"/>
          </g>
          <path d="M552.5,1730.14c42.08.92,79.44,38,98.92,70.44H596.83C563.6,1789.55,546.67,1758.87,552.5,1730.14Z" transform="translate(-457.35 -340.21)" style="mix-blend-mode: color-burn;fill: url(#linear-gradient-9)"/>
          <g>
            <path d="M750.93,1598.86C667.12,1622,715.84,1731,715.84,1731s-48.18-79.82-116.83-45.1c-45.39,23-44.6,88.55,11.19,114.67H887.32C900.12,1675.52,836.94,1575.13,750.93,1598.86Z" transform="translate(-457.35 -340.21)" style="fill: #f97c15"/>
            <path d="M750.93,1598.86C667.12,1622,715.84,1731,715.84,1731s-48.18-79.82-116.83-45.1c-45.39,23-44.6,88.55,11.19,114.67H887.32C900.12,1675.52,836.94,1575.13,750.93,1598.86Z" transform="translate(-457.35 -340.21)" style="mix-blend-mode: color-burn;fill: url(#linear-gradient-10)"/>
          </g>
          <path d="M702.57,1653.78c3.07-23.67,15.57-45.87,48.36-54.92,86-23.73,149.19,76.66,136.39,201.72h-103C742.5,1754.48,716.5,1701.63,702.57,1653.78Z" transform="translate(-457.35 -340.21)" style="mix-blend-mode: color-burn;fill: url(#linear-gradient-11)"/>
          <g>
            <path d="M792.28,1800.58c-37.3-58.6-53.61-122.18-57.06-176.36A378.87,378.87,0,0,1,755,1476c28.28,13.52,75.31,36.16,125.44,61.41,50.38,25.8,103.85,54.21,150.64,92,48.75,39.47,79,93.83,106.61,149,3.58,7.37,7.13,14.76,10.6,22.1Z" transform="translate(-457.35 -340.21)" style="fill: url(#linear-gradient-12)"/>
            <path d="M790,1647.1q33,7.19,65.53,11.44a826.21,826.21,0,0,0,62.2,72.83,807.49,807.49,0,0,1-112.5-9.49,3.73,3.73,0,0,0-4.37,3.48,4.55,4.55,0,0,0,3.79,4.74,810.29,810.29,0,0,0,120.76,9.17,827.17,827.17,0,0,0,67.51,61.31h16.66a734.89,734.89,0,0,1-2.58-128,3.08,3.08,0,0,0-3.41-3.39,4.39,4.39,0,0,0-4,3.94,739.25,739.25,0,0,0,1.74,124.12A819.66,819.66,0,0,1,931,1733.72a747.62,747.62,0,0,1,10.89-114.11,3.18,3.18,0,0,0-3.06-3.83,4.34,4.34,0,0,0-4.37,3.47,749.83,749.83,0,0,0-11.07,106.65,816.73,816.73,0,0,1-61.6-72.14q4.79-32.28,12.1-63.23a3.47,3.47,0,0,0-2.88-4.3,4.16,4.16,0,0,0-4.65,3.09q-6.52,27.3-11.13,55.69-22.54-30.57-42.28-63.28a3.95,3.95,0,0,0-6.76,4.08q19.89,33,42.68,63.89-28.56-4.15-57.51-10.56a3.85,3.85,0,0,0-4.66,3.1A4.26,4.26,0,0,0,790,1647.1Zm282.94,121.48q1.69,15.93,4.14,32h7.69q-2.65-16.87-4.5-33.61a3.28,3.28,0,0,0-4-2.92A4.29,4.29,0,0,0,1072.92,1768.58Z" transform="translate(-457.35 -340.21)" style="fill: #9e9e9e;mix-blend-mode: color-burn"/>
          </g>
          <path d="M880.42,1537.42c50.38,25.8,103.85,54.21,150.64,92,48.75,39.46,79,93.83,106.61,149,3.58,7.37,7.13,14.76,10.6,22.1H957.81a327.72,327.72,0,0,1-50.81-66c-41.84-70.91-57.61-146.49-58.36-213C859,1526.67,869.63,1532,880.42,1537.42Z" transform="translate(-457.35 -340.21)" style="mix-blend-mode: color-burn;fill: url(#linear-gradient-13)"/>
          <g>
            <path d="M970.24,1800.58a329.06,329.06,0,0,1-47.34-80.78c-39.13-94.63-37.31-190.78-19.32-265.16,17.82-75.25,51.81-128.72,73.23-158.22,26.82,24.83,71.37,66.3,118.47,111.74,47.18,46.15,96.92,96.27,136,154.58,40.65,60.8,55.49,131.78,67.21,202.8,1.8,11.73,3.5,23.45,5.12,35Z" transform="translate(-457.35 -340.21)" style="fill: url(#linear-gradient-14)"/>
            <path d="M944.28,1596.55a945.16,945.16,0,0,0,131.31,52,964.34,964.34,0,0,0,56.91,96A956.81,956.81,0,0,1,984.4,1704a4.32,4.32,0,0,0-5.77,3,5.42,5.42,0,0,0,3.36,6.34,960.1,960.1,0,0,0,157.77,41.8q16.08,23.19,33.52,45.44h11.78q-19.71-24.75-37.72-50.69a856.57,856.57,0,0,1,42.15-147.41,3.59,3.59,0,0,0-2.62-5,5.13,5.13,0,0,0-5.77,3,859.92,859.92,0,0,0-40.95,138.83,953.33,953.33,0,0,1-56.37-95.11A869.21,869.21,0,0,1,1135.36,1521a3.71,3.71,0,0,0-2.09-5.32,5.07,5.07,0,0,0-6.08,2.35,874.5,874.5,0,0,0-49.18,115,954.18,954.18,0,0,1-43.67-101.63q16.48-34.29,35.33-66.25a4,4,0,0,0-1.71-5.77,4.87,4.87,0,0,0-6.26,1.83q-16.68,28.16-31.63,58.17-14.55-41.83-25.22-85.08a4.6,4.6,0,0,0-8.94,2.2q10.74,43.62,25.45,85.91-30.39-14.5-60.4-31.64a4.47,4.47,0,0,0-6.25,1.84,5,5,0,0,0,1.94,6.53q34.25,19.43,69,35.4a964.73,964.73,0,0,0,44.1,102.61,942.55,942.55,0,0,1-122-49.45,4.36,4.36,0,0,0-6.08,2.35A5.31,5.31,0,0,0,944.28,1596.55Zm285.48,135.59q-6.62,33.52-10.61,68.44h9q3.84-34.5,10.3-67.7a3.82,3.82,0,0,0-3.51-4.65A5,5,0,0,0,1229.76,1732.14Z" transform="translate(-457.35 -340.21)" style="fill: #9e9e9e;mix-blend-mode: color-burn"/>
          </g>
        </g>
      </g>
      <g style="mix-blend-mode: color-burn">
        <path d="M1800.3,798.78c0,1.26,0,2.51,0,3.77-2.13,286.86-246.6,412.82-246.6,527.33v86.79h-19.31v-86.79c0-51.23,38.08-99,86.3-159.36,70.9-88.85,159-199.27,160.3-368,0-1.26,0-2.51,0-3.77s0-2.64,0-4h19.31C1800.29,796.14,1800.3,797.46,1800.3,798.78Z" transform="translate(-457.35 -340.21)" style="fill: url(#linear-gradient-15)"/>
        <path d="M1799.43,794.67h-19.31a431.59,431.59,0,0,0-425.66-428.15v.14c-1.29,0-2.57,0-3.86,0s-2.58,0-3.86,0A431.68,431.68,0,0,0,920.21,798.78c0,170.83,88.89,282.23,160.33,371.74,48.21,60.41,86.3,108.13,86.3,159.36v86.79h-19.31v-86.79c0-115-246.64-241.57-246.64-531.1,0-247.57,199-448.45,445.85-451.43,1.28,0,2.57,0,3.86,0,1,0,2,0,3,0v-.15C1599.1,350.16,1797.32,548.92,1799.43,794.67Z" transform="translate(-457.35 -340.21)" style="fill: url(#linear-gradient-16)"/>
      </g>
      <g>
        <path d="M1350.6,1748.12H1221.51l3.83,22.75c2.77,16.68,18.83,29.71,35.76,29.71h179c16.92,0,33-13,35.75-29.71l3.83-22.75Z" transform="translate(-457.35 -340.21)" style="fill: url(#linear-gradient-17)"/>
        <rect x="660.48" y="1076.46" width="465.54" height="44.93" rx="19.8" style="fill: url(#linear-gradient-18)"/>
        <g>
          <path d="M1140,1461.6,1178,1720.42c2.27,15.44,17.58,27.7,34.09,27.7h277.08c16.45,0,31.85-12.26,34.1-27.7l37.94-258.82Z" transform="translate(-457.35 -340.21)" style="fill: url(#linear-gradient-19)"/>
          <polygon points="1077.31 1302.22 1103.82 1121.39 682.68 1121.39 709.18 1302.22 1077.31 1302.22" style="mix-blend-mode: color-burn;fill: url(#linear-gradient-20)"/>
        </g>
        <path d="M1156.09,1571.2,1333,1748.12h41.38L1149,1522.72Zm77.28-109.6,278.32,278.31a31.35,31.35,0,0,0,11.54-19.49l1.32-9-249.8-249.8Zm-61.24,219.08,67.44,67.44H1281L1165,1632.21ZM1140,1461.6v.11l286.41,286.41h41.38L1181.3,1461.6Zm186.78,0L1531.21,1666l5.29-36.08L1368.19,1461.6Zm228.26,0H1513.7l41.4,41.4,5.29-36.08Zm-134.82,0,122.9,122.9,5.3-36.09-86.82-86.81Z" transform="translate(-457.35 -340.21)" style="mix-blend-mode: color-burn;fill: url(#linear-gradient-21)"/>
      </g>
      <path d="M1037.87,1130.66c-84.78-83.61-137.5-200.82-137.5-330.58,0-254,201.95-459.87,451.1-459.87s451.09,205.89,451.09,459.87c0,129.76-52.72,247-137.51,330.58h.17c-14.32,18.08-20.65,26-30.63,38.31-50.55,62.52-81.72,106.39-81.72,159.39l-.75,95.29H1148.18l-1.46-87.12c0-53-27.82-105-78.36-167.56" transform="translate(-457.35 -340.21)" style="mix-blend-mode: color-burn;fill: url(#linear-gradient-22)"/>
      <path d="M1026.39,493.26a430.73,430.73,0,0,0-126,305.08c0,170.84,88.89,282.23,160.33,371.74,48.21,60.41,86.3,108.14,86.3,159.36v86.79h99.63v-86.79c0-51.22-17.43-99-39.51-159.36-32.7-89.51-73.4-200.9-73.4-371.74,0-58.24,5.21-114.73,15.47-167.9,9.92-51.36,24.12-97.51,42.22-137.18s39.16-70.85,62.63-92.69c24.28-22.6,50.1-34.17,76.72-34.39a430.64,430.64,0,0,0-304.39,127.08Z" transform="translate(-457.35 -340.21)" style="mix-blend-mode: color-burn;fill: url(#linear-gradient-23)"/>
      <path d="M1297.67,1770.87l-1.62-22.75h-4c-7,0-13.44-12.26-14.4-27.7l-3.84-61.94-1.62-26.27h0l-3.78-61-3-48.48h0l-3.78-61h0v-.11h-1c-4.61,0-8.37-8.91-8.37-19.81v-5.31c0-10.9,3.76-19.81,8.37-19.81h-123a19.86,19.86,0,0,0-19.8,19.81v5.31a19.86,19.86,0,0,0,19.8,19.81h2.4v.11h0l9,61h0l7.11,48.48,8.94,61h0l3.85,26.27,9.08,61.94c2.27,15.44,17.58,27.7,34.09,27.7h9.46l3.83,22.75c2.77,16.68,18.83,29.71,35.76,29.71h51.68C1305.63,1800.58,1298.84,1787.55,1297.67,1770.87Z" transform="translate(-457.35 -340.21)" style="mix-blend-mode: color-burn;fill: url(#linear-gradient-24)"/>
      <g>
        <path d="M1727.76,714.24A19.33,19.33,0,0,1,1709.13,700c-1-3.59-2-7.21-3.1-10.76A19.31,19.31,0,0,1,1743,678c1.2,3.93,2.35,7.93,3.43,11.89a19.32,19.32,0,0,1-18.64,24.39Zm-25.86-68.76a19.32,19.32,0,0,1-17.37-10.86,372.42,372.42,0,0,0-49.93-76.74A19.31,19.31,0,0,1,1664.14,533a411.22,411.22,0,0,1,55.1,84.7,19.33,19.33,0,0,1-17.34,27.78Zm-95.83-124.74A19.25,19.25,0,0,1,1593.4,516a372.94,372.94,0,0,0-144.22-77.83A19.31,19.31,0,0,1,1459.6,401a411.61,411.61,0,0,1,159.16,85.89,19.31,19.31,0,0,1-12.69,33.87Z" transform="translate(-457.35 -340.21)" style="fill: url(#linear-gradient-25)"/>
        <path d="M1452.79,970a77.68,77.68,0,0,0-77.59,77.59v59.15H1326v-59.15a77.6,77.6,0,1,0-77.59,77.6h59.14v291.51H1326V1125.16h49.2v291.51h18.45V1125.16h59.14a77.6,77.6,0,1,0,0-155.19Zm-170.48,136.74h-33.9a59.15,59.15,0,1,1,59.14-59.15v59.15Zm170.48,0h-59.14v-59.15a59.15,59.15,0,1,1,59.14,59.15Z" transform="translate(-457.35 -340.21)" style="fill: url(#linear-gradient-26)"/>
      </g>
    </g>
  </g>
</svg>
