<svg id="Layer_1" data-name="Layer 1" xmlns="http://www.w3.org/2000/svg" viewBox="0 0 512 512"><defs><style>.cls-1{fill:#222;}.cls-2{fill:#f6c024;}.cls-3{fill:#f7b11b;}.cls-4{fill:#f99d1c;}.cls-5{fill:#f57e20;}</style></defs><circle class="cls-1" cx="256" cy="256" r="256"/><path class="cls-2" d="M96.87,136.34h59.23a0,0,0,0,1,0,0V375.66a0,0,0,0,1,0,0h0a59.23,59.23,0,0,1-59.23-59.23V136.34a0,0,0,0,1,0,0Z"/><polygon class="cls-3" points="284.85 327.8 225.61 327.8 96.88 136.34 156.11 136.34 284.85 327.8"/><polygon class="cls-4" points="227.16 327.8 286.39 327.8 415.13 136.34 355.89 136.34 227.16 327.8"/><path class="cls-5" d="M355.89,136.34h59.23a0,0,0,0,1,0,0V316.43a59.23,59.23,0,0,1-59.23,59.23h0a0,0,0,0,1,0,0V136.34A0,0,0,0,1,355.89,136.34Z"/></svg>